<svg xmlns="http://www.w3.org/2000/svg" width="167.367" height="150.211" viewBox="0 0 167.367 150.211">
  <defs>
    <style>
      .cls-1 {
        fill: #f2f2f2;
      }

      .cls-2 {
        fill: #f7f7f7;
      }

      .cls-3 {
        fill: #505075;
      }

      .cls-4 {
        fill: #e6e6e6;
      }

      .cls-5 {
        fill: #e2e2e2;
      }
    </style>
  </defs>
  <g id="undraw_Add_files_re_v09g" transform="translate(-0.006 -0.006)">
    <path id="Path_82" data-name="Path 82" class="cls-1" d="M294.7,99.392l-5.446,1.4-67.094,17.3-5.446,1.4a10.311,10.311,0,0,0-7.4,12.545l23.615,91.572a10.311,10.311,0,0,0,12.545,7.4l.014,0,77.958-20.1.014,0a10.311,10.311,0,0,0,7.4-12.545l-23.615-91.572A10.311,10.311,0,0,0,294.7,99.392Z" transform="translate(-208.978 -99.06)"/>
    <path id="Path_83" data-name="Path 83" class="cls-2" d="M306.327,113.152l-6.45,1.663L234.791,131.6l-6.45,1.663a7.343,7.343,0,0,0-5.271,8.934l23.615,91.572a7.343,7.343,0,0,0,8.934,5.271l.014,0,77.958-20.1.014,0a7.343,7.343,0,0,0,5.271-8.934l-23.615-91.572a7.343,7.343,0,0,0-8.934-5.271Z" transform="translate(-219.867 -109.949)"/>
    <path id="Path_84" data-name="Path 84" class="cls-3" d="M437.481,240.163l-39.437,10.17a1.715,1.715,0,1,1-.857-3.322l39.437-10.17a1.715,1.715,0,1,1,.857,3.322Z" transform="translate(-355.891 -207.307)"/>
    <path id="Path_85" data-name="Path 85" class="cls-3" d="M451.085,258.1,404.8,270.035a1.715,1.715,0,1,1-.857-3.322l46.288-11.937a1.715,1.715,0,0,1,.857,3.322Z" transform="translate(-361.2 -221.404)"/>
    <path id="Path_86" data-name="Path 86" class="cls-1" d="M467.749,357.537l-39.437,10.17a1.715,1.715,0,1,1-.857-3.322l39.437-10.17a1.715,1.715,0,1,1,.857,3.322Z" transform="translate(-379.681 -299.561)"/>
    <path id="Path_87" data-name="Path 87" class="cls-1" d="M481.353,375.473,435.066,387.41a1.715,1.715,0,1,1-.857-3.322L480.5,372.151a1.715,1.715,0,1,1,.857,3.322Z" transform="translate(-384.99 -313.658)"/>
    <path id="Path_88" data-name="Path 88" class="cls-1" d="M498.018,474.91l-39.437,10.17a1.715,1.715,0,0,1-.857-3.322l39.437-10.17a1.715,1.715,0,0,1,.857,3.322Z" transform="translate(-403.472 -391.814)"/>
    <path id="Path_89" data-name="Path 89" class="cls-1" d="M511.622,492.846l-46.288,11.937a1.715,1.715,0,0,1-.857-3.322l46.288-11.937a1.715,1.715,0,0,1,.857,3.322Z" transform="translate(-408.781 -405.912)"/>
    <path id="Path_90" data-name="Path 90" class="cls-3" d="M307.662,297.239l-13.956,3.6a.823.823,0,0,1-1-.591l-3.2-12.423a.823.823,0,0,1,.591-1l13.956-3.6a.823.823,0,0,1,1,.591l3.2,12.423A.823.823,0,0,1,307.662,297.239Z" transform="translate(-272.242 -243.784)"/>
    <path id="Path_91" data-name="Path 91" class="cls-3" d="M337.931,414.612l-13.956,3.6a.823.823,0,0,1-1-.591l-3.2-12.423a.823.823,0,0,1,.591-1l13.956-3.6a.823.823,0,0,1,1,.591l3.2,12.423A.823.823,0,0,1,337.931,414.612Z" transform="translate(-296.033 -336.038)"/>
    <path id="Path_92" data-name="Path 92" class="cls-3" d="M368.2,531.986l-13.956,3.6a.823.823,0,0,1-1-.591l-3.2-12.423a.823.823,0,0,1,.591-1l13.956-3.6a.823.823,0,0,1,1,.591l3.2,12.423A.823.823,0,0,1,368.2,531.986Z" transform="translate(-319.823 -428.292)"/>
    <path id="Path_93" data-name="Path 93" class="cls-4" d="M530.03,209.052H449.492a10.311,10.311,0,0,0-10.3,10.3v94.568a10.311,10.311,0,0,0,10.3,10.3H530.03a10.311,10.311,0,0,0,10.3-10.3V219.351A10.311,10.311,0,0,0,530.03,209.052Z" transform="translate(-389.919 -185.508)"/>
    <path id="Path_94" data-name="Path 94" class="cls-2" d="M540.919,222.906H460.381a7.343,7.343,0,0,0-7.334,7.334v94.568a7.343,7.343,0,0,0,7.334,7.334h80.538a7.343,7.343,0,0,0,7.334-7.334V230.24A7.343,7.343,0,0,0,540.919,222.906Z" transform="translate(-400.808 -196.397)"/>
    <circle id="Ellipse_32" data-name="Ellipse 32" class="cls-5" cx="18.801" cy="18.801" r="18.801" transform="translate(129.771 112.614)"/>
    <path id="Path_95" data-name="Path 95" class="cls-3" d="M870.133,668.607h-6.539v-6.54a2.452,2.452,0,1,0-4.9,0v6.54h-6.54a2.452,2.452,0,0,0,0,4.9h6.54v6.54a2.452,2.452,0,0,0,4.9,0v-6.54h6.54a2.452,2.452,0,1,0,0-4.9Z" transform="translate(-712.57 -539.644)"/>
    <path id="Path_96" data-name="Path 96" class="cls-3" d="M651.127,453.118H610.4a1.715,1.715,0,0,1,0-3.43h40.727a1.715,1.715,0,0,1,0,3.43Z" transform="translate(-523.137 -374.644)"/>
    <path id="Path_97" data-name="Path 97" class="cls-3" d="M658.2,480.165H610.4a1.715,1.715,0,1,1,0-3.43h47.8a1.715,1.715,0,0,1,0,3.43Z" transform="translate(-523.137 -395.902)"/>
    <path id="Path_98" data-name="Path 98" class="cls-3" d="M651.127,574.331H610.4a1.715,1.715,0,0,1,0-3.43h40.727a1.715,1.715,0,0,1,0,3.43Z" transform="translate(-523.137 -469.916)"/>
    <path id="Path_99" data-name="Path 99" class="cls-3" d="M658.2,601.379H610.4a1.715,1.715,0,1,1,0-3.43h47.8a1.715,1.715,0,0,1,0,3.43Z" transform="translate(-523.137 -491.175)"/>
    <path id="Path_100" data-name="Path 100" class="cls-3" d="M518.117,451.884H503.7a.823.823,0,0,1-.822-.822v-12.83a.823.823,0,0,1,.822-.822h14.413a.823.823,0,0,1,.822.822v12.83A.823.823,0,0,1,518.117,451.884Z" transform="translate(-439.977 -364.993)"/>
    <path id="Path_101" data-name="Path 101" class="cls-3" d="M518.117,573.1H503.7a.823.823,0,0,1-.822-.822v-12.83a.823.823,0,0,1,.822-.822h14.413a.823.823,0,0,1,.822.822v12.83A.823.823,0,0,1,518.117,573.1Z" transform="translate(-439.977 -460.265)"/>
    <path id="Path_102" data-name="Path 102" class="cls-3" d="M690.638,318.183H660.611a1.715,1.715,0,1,1,0-3.43h30.027a1.715,1.715,0,1,1,0,3.43Z" transform="translate(-562.602 -268.587)"/>
    <path id="Path_103" data-name="Path 103" class="cls-3" d="M697.713,345.231h-37.1a1.715,1.715,0,1,1,0-3.43h37.1a1.715,1.715,0,0,1,0,3.43Z" transform="translate(-562.602 -289.846)"/>
    <path id="Path_104" data-name="Path 104" class="cls-3" d="M531.174,305.223H503.493a.823.823,0,0,1-.822-.822V282.8a.823.823,0,0,1,.822-.822h27.682a.823.823,0,0,1,.822.822v21.6A.823.823,0,0,1,531.174,305.223Z" transform="translate(-439.811 -242.823)"/>
  </g>
</svg>
