<svg xmlns="http://www.w3.org/2000/svg" viewBox="0 0 366.29 497.99"><defs><style>.cls-1{fill:#ccc;}</style></defs><title>Logo_W</title><g id="Layer_2" data-name="Layer 2"><g id="Layer_9" data-name="Layer 9"><path class="cls-1" d="M56.41,97.06H99.59a26.57,26.57,0,0,1,26.57,26.57V352.79a3.32,3.32,0,0,1-3.32,3.32H79.66a26.57,26.57,0,0,1-26.57-26.57V100.38A3.32,3.32,0,0,1,56.41,97.06Z"/><path class="cls-1" d="M227.79,97.06H271a26.57,26.57,0,0,1,26.57,26.57V352.79a3.32,3.32,0,0,1-3.32,3.32H251a26.57,26.57,0,0,1-26.57-26.57V100.38A3.32,3.32,0,0,1,227.79,97.06Z"/><path class="cls-1" d="M133.46,0h59.78a26.57,26.57,0,0,1,26.57,26.57V85a3.32,3.32,0,0,1-3.32,3.32H156.71a26.57,26.57,0,0,1-26.57-26.57V3.32A3.32,3.32,0,0,1,133.46,0Z"/><path class="cls-1" d="M17.28,469.9v2.52a28.78,28.78,0,0,0,.48,5.47,9.55,9.55,0,0,0,1.8,4.13,8.89,8.89,0,0,0,3.54,2.65,14.11,14.11,0,0,0,5.58,1,11,11,0,0,0,7.14-2.58q3.18-2.6,3.18-8a14.31,14.31,0,0,0-.78-5,9.83,9.83,0,0,0-2.58-3.78,18.31,18.31,0,0,0-4.74-3.06,67.93,67.93,0,0,0-7.26-2.82,62.19,62.19,0,0,1-10-4.2,26.86,26.86,0,0,1-7-5.34,19.12,19.12,0,0,1-4.14-7.08,29.82,29.82,0,0,1-1.32-9.3q0-12.72,7.08-19t19.44-6.24a42.25,42.25,0,0,1,10.62,1.26,22.25,22.25,0,0,1,8.4,4.08,19.09,19.09,0,0,1,5.52,7.2,25.35,25.35,0,0,1,2,10.5v2.4H37.68q0-6.12-2.16-9.42t-7.2-3.3a12,12,0,0,0-4.8.84,8.08,8.08,0,0,0-3.06,2.22,7.65,7.65,0,0,0-1.56,3.18,16.32,16.32,0,0,0-.42,3.72,12.38,12.38,0,0,0,1.68,6.66q1.68,2.7,7.2,5l13.32,5.76a40.83,40.83,0,0,1,8,4.5,21.94,21.94,0,0,1,5,5,16.79,16.79,0,0,1,2.58,5.94,33.25,33.25,0,0,1,.72,7.2q0,13.56-7.86,19.75T27.24,498Q12.6,498,6.3,491.63T0,473.38V469.9Z"/><path class="cls-1" d="M118.93,411v14.16H88.33V445.3h28.8v14.16H88.33v23.05h31.8v14.16H71.05V411Z"/><path class="cls-1" d="M134.18,411H163.1a41.86,41.86,0,0,1,9.78,1.08,20,20,0,0,1,7.74,3.6,16.59,16.59,0,0,1,5,6.72,26.21,26.21,0,0,1,1.8,10.32,21.41,21.41,0,0,1-3.24,11.94,16.28,16.28,0,0,1-9.72,6.78v.24a17,17,0,0,1,11.4,6.12q4.2,5.16,4.2,13.8a34.36,34.36,0,0,1-1.32,9.6,19.56,19.56,0,0,1-4.5,8,22.5,22.5,0,0,1-8.28,5.46,34.26,34.26,0,0,1-12.66,2H134.18Zm17.28,35.16h4.92q7.2,0,10.5-2.58t3.3-8.7q0-6.12-3-8.64t-9.48-2.52h-6.24Zm0,37.81h6.72q6.24,0,10.08-2.77c2.56-1.83,3.84-5.24,3.84-10.2a16.22,16.22,0,0,0-1-6.18,10.35,10.35,0,0,0-2.76-4,9.92,9.92,0,0,0-4.14-2.1,21.76,21.76,0,0,0-5.28-.6h-7.44Z"/><path class="cls-1" d="M220.23,469.9v2.52a28.78,28.78,0,0,0,.48,5.47,9.55,9.55,0,0,0,1.8,4.13,8.89,8.89,0,0,0,3.54,2.65,14.11,14.11,0,0,0,5.58,1,11,11,0,0,0,7.14-2.58q3.18-2.6,3.18-8a14.31,14.31,0,0,0-.78-5,9.83,9.83,0,0,0-2.58-3.78,18.31,18.31,0,0,0-4.74-3.06,67.93,67.93,0,0,0-7.26-2.82,62.19,62.19,0,0,1-10-4.2,26.86,26.86,0,0,1-7-5.34,19.12,19.12,0,0,1-4.14-7.08,29.82,29.82,0,0,1-1.32-9.3q0-12.72,7.08-19t19.44-6.24a42.25,42.25,0,0,1,10.62,1.26,22.25,22.25,0,0,1,8.4,4.08,19.09,19.09,0,0,1,5.52,7.2,25.35,25.35,0,0,1,2,10.5v2.4H240.63q0-6.12-2.16-9.42t-7.2-3.3a12,12,0,0,0-4.8.84,8.08,8.08,0,0,0-3.06,2.22,7.65,7.65,0,0,0-1.56,3.18,16.32,16.32,0,0,0-.42,3.72,12.38,12.38,0,0,0,1.68,6.66q1.68,2.7,7.2,5l13.32,5.76a40.83,40.83,0,0,1,8,4.5,21.94,21.94,0,0,1,5,5,16.79,16.79,0,0,1,2.58,5.94,33.25,33.25,0,0,1,.72,7.2q0,13.56-7.86,19.75T230.19,498q-14.64,0-20.94-6.36T203,473.38V469.9Z"/><path class="cls-1" d="M274.84,496.67V411h17.28v85.69Z"/><path class="cls-1" d="M310.36,411h28.92a41.86,41.86,0,0,1,9.78,1.08,20,20,0,0,1,7.74,3.6,16.59,16.59,0,0,1,5,6.72,26.21,26.21,0,0,1,1.8,10.32,21.41,21.41,0,0,1-3.24,11.94,16.28,16.28,0,0,1-9.72,6.78v.24a17,17,0,0,1,11.4,6.12q4.2,5.16,4.21,13.8a34.36,34.36,0,0,1-1.33,9.6,19.56,19.56,0,0,1-4.5,8,22.5,22.5,0,0,1-8.28,5.46,34.26,34.26,0,0,1-12.66,2H310.36Zm17.28,35.16h4.92q7.2,0,10.5-2.58t3.3-8.7q0-6.12-3-8.64t-9.48-2.52h-6.24Zm0,37.81h6.72q6.24,0,10.08-2.77c2.56-1.83,3.84-5.24,3.84-10.2a16.22,16.22,0,0,0-1-6.18,10.35,10.35,0,0,0-2.76-4,9.92,9.92,0,0,0-4.14-2.1,21.76,21.76,0,0,0-5.28-.6h-7.44Z"/></g></g></svg>