<svg xmlns="http://www.w3.org/2000/svg" width="387.097" height="318.162" viewBox="0 0 387.097 318.162">
  <defs>
    <style>
      .cls-1 {
        opacity: 0.6;
      }

      .cls-14, .cls-16, .cls-17, .cls-2, .cls-4, .cls-8 {
        fill: none;
      }

      .cls-2 {
        stroke: #fff;
        stroke-width: 3px;
      }

      .cls-13, .cls-16, .cls-17, .cls-2, .cls-4, .cls-7, .cls-8 {
        stroke-linecap: round;
        stroke-linejoin: round;
      }

      .cls-13, .cls-2, .cls-4, .cls-7, .cls-8 {
        stroke-miterlimit: 10;
      }

      .cls-3 {
        fill: #77ba85;
      }

      .cls-13, .cls-17, .cls-4, .cls-7, .cls-8 {
        stroke: #474747;
      }

      .cls-13, .cls-4, .cls-7, .cls-8 {
        stroke-width: 6px;
      }

      .cls-5 {
        fill: #f6f9ea;
      }

      .cls-6 {
        fill: #97cd78;
      }

      .cls-13, .cls-7 {
        fill: #474747;
      }

      .cls-7 {
        opacity: 0.32;
      }

      .cls-8 {
        opacity: 0.15;
      }

      .cls-9 {
        fill: #f58870;
      }

      .cls-10 {
        fill: #505075;
      }

      .cls-11 {
        fill: #454568;
      }

      .cls-12 {
        fill: #636390;
      }

      .cls-13 {
        opacity: 0.3;
      }

      .cls-15 {
        opacity: 0.46;
      }

      .cls-16 {
        stroke: #282829;
        stroke-dasharray: 13.958 9.97;
      }

      .cls-16, .cls-17 {
        stroke-width: 4px;
      }

      .cls-17 {
        stroke-dasharray: 9.839 11.807;
      }

      .cls-18 {
        fill: #8f6d5d;
      }

      .cls-19 {
        fill: #fffcee;
      }

      .cls-20 {
        fill: #fdb740;
      }

      .cls-21 {
        fill: #fff3c0;
        opacity: 0.88;
      }

      .cls-22 {
        fill: #f29e25;
      }
    </style>
  </defs>
  <g id="Group_44" data-name="Group 44" transform="translate(609.603 6588.47)">
    <g id="XMLID_1_" class="cls-1" transform="translate(-608.103 -6586.965)">
      <path id="XMLID_57_" class="cls-2" d="M157.5,387.9h45.1v21.984H157.5" transform="translate(-157.5 -279.203)"/>
      <line id="XMLID_59_" class="cls-2" x1="45.048" transform="translate(45.105 130.682)"/>
      <line id="XMLID_38_" class="cls-2" x2="17.269" transform="translate(45.105 108.697)"/>
      <rect id="XMLID_42_" class="cls-2" width="45.048" height="21.984" transform="translate(22.552 130.682)"/>
      <path id="XMLID_52_" class="cls-2" d="M169.9,465.5h38.061v21.984h-14.6" transform="translate(-162.856 -312.72)"/>
      <rect id="XMLID_54_" class="cls-2" width="45.048" height="21.984" transform="translate(45.105 152.78)"/>
      <path id="XMLID_81_" class="cls-2" d="M580.5,528h45.1v21.928H580.5" transform="translate(-340.205 -339.716)"/>
      <line id="XMLID_80_" class="cls-2" x1="45.048" transform="translate(285.4 210.212)"/>
      <line id="XMLID_79_" class="cls-2" x2="17.269" transform="translate(285.4 188.284)"/>
      <rect id="XMLID_78_" class="cls-2" width="45.048" height="21.984" transform="translate(262.847 210.212)"/>
      <path id="XMLID_77_" class="cls-2" d="M592.9,605.5h38.061v21.984h-14.6" transform="translate(-345.561 -373.19)"/>
      <path id="XMLID_76_" class="cls-2" d="M688.928,627.484H659.9V605.5h37.55" transform="translate(-374.5 -373.19)"/>
      <rect id="XMLID_25_" class="cls-2" width="69.93" height="56.694" transform="translate(93.334 26.383)"/>
      <path id="XMLID_62_" class="cls-2" d="M338.8,305.576,351.582,287l13.293,16.417" transform="translate(-235.808 -235.621)"/>
      <path id="XMLID_64_" class="cls-2" d="M376.1,292.126,393.994,274.8l12.668,25.506" transform="translate(-251.919 -230.352)"/>
      <path id="XMLID_63_" class="cls-2" d="M367.9,291.6a6.718,6.718,0,0,1,12.157-1.307" transform="translate(-248.377 -235.621)"/>
      <path id="XMLID_24_" class="cls-2" d="M684.316,400.093H584.846a6.619,6.619,0,0,1-6.646-6.646h0a6.619,6.619,0,0,1,6.646-6.646h99.469a6.619,6.619,0,0,1,6.646,6.646h0A6.619,6.619,0,0,1,684.316,400.093Z" transform="translate(-339.212 -278.728)"/>
      <path id="XMLID_23_" class="cls-2" d="M678.064,358.509H648.922L642.9,321.3h41.242Z" transform="translate(-367.157 -250.437)"/>
      <rect id="XMLID_46_" class="cls-2" width="52.433" height="10.793" transform="translate(270.232 60.07)"/>
      <g id="XMLID_68_" transform="translate(287.187 19.112)">
        <path id="XMLID_83_" class="cls-2" d="M678.983,271.158H668.246c-2.954-10.282-5.51-21.076-5.169-31.642.4-5.056,5.851-9.316,10.566-9.316h0c4.715,0,10.168,4.261,10.566,9.316C684.436,250.083,681.88,260.876,678.983,271.158Z" transform="translate(-663.046 -230.2)"/>
      </g>
      <path id="XMLID_71_" class="cls-2" d="M700.7,233.376l7.442-12.327a4.467,4.467,0,0,1,6.76-1.079h0a4.435,4.435,0,0,1-.114,6.817l-13.975,11.475" transform="translate(-392.123 -206.197)"/>
      <path id="XMLID_75_" class="cls-2" d="M711.21,211.294l-3.522-11.021a2.821,2.821,0,0,1,2.329-3.692h0a2.914,2.914,0,0,1,3.295,2.9l-.284,8.919" transform="translate(-395.077 -196.556)"/>
    </g>
    <g id="XMLID_20_" transform="translate(-464.986 -6520.834)">
      <rect id="XMLID_7_" class="cls-3" width="171.047" height="82.541" transform="translate(149.149 36.169) rotate(115.989)"/>
      <rect id="XMLID_17_" class="cls-4" width="171.047" height="82.541" transform="translate(149.149 36.169) rotate(115.989)"/>
      <path id="XMLID_16_" class="cls-5" d="M538.839,361.089,515.093,349.5a18.6,18.6,0,0,1-24.882,8.578L431.7,478.055l57.2,27.892L547.416,385.97A18.547,18.547,0,0,1,538.839,361.089Z" transform="translate(-419.052 -328.748)"/>
      <path id="XMLID_12_" class="cls-4" d="M538.839,361.089,515.093,349.5a18.6,18.6,0,0,1-24.882,8.578L431.7,478.055l57.2,27.892L547.416,385.97A18.547,18.547,0,0,1,538.839,361.089Z" transform="translate(-419.052 -328.748)"/>
      <rect id="XMLID_10_" class="cls-4" width="63.624" height="152.13" transform="translate(79.319 12.619) rotate(25.989)"/>
      <circle id="XMLID_19_" class="cls-3" cx="19.485" cy="19.485" r="19.485" transform="translate(60.764 63.471)"/>
      <circle id="XMLID_13_" class="cls-4" cx="19.485" cy="19.485" r="19.485" transform="translate(60.764 63.471)"/>
    </g>
    <g id="XMLID_22_" transform="translate(-444.669 -6495.817)">
      <rect id="XMLID_33_" class="cls-6" width="171.047" height="82.541" transform="translate(184.644 63.829) rotate(140.653)"/>
      <rect id="XMLID_32_" class="cls-4" width="171.047" height="82.541" transform="translate(184.644 63.829) rotate(140.653)"/>
      <path id="XMLID_31_" class="cls-5" d="M614.865,424.207l-16.758-20.394a18.592,18.592,0,0,1-26.188-2.613L468.7,485.843l40.333,49.2L612.252,450.4A18.6,18.6,0,0,1,614.865,424.207Z" transform="translate(-455.35 -376.095)"/>
      <path id="XMLID_30_" class="cls-4" d="M614.865,424.207l-16.758-20.394a18.592,18.592,0,0,1-26.188-2.613L468.7,485.843l40.333,49.2L612.252,450.4A18.6,18.6,0,0,1,614.865,424.207Z" transform="translate(-455.35 -376.095)"/>
      <rect id="XMLID_29_" class="cls-4" width="63.624" height="152.13" transform="translate(130.942 13.331) rotate(50.653)"/>
      <circle id="XMLID_28_" class="cls-6" cx="19.485" cy="19.485" r="19.485" transform="translate(82.995 58.167)"/>
      <circle id="XMLID_27_" class="cls-4" cx="19.485" cy="19.485" r="19.485" transform="translate(82.995 58.167)"/>
      <path id="XMLID_48_" class="cls-7" d="M549.839,437.659a39.8,39.8,0,0,0-10-26.359L445.2,488.9l52.376,63.851,52.319-42.89v-72.2Z" transform="translate(-445.2 -380.458)"/>
    </g>
    <line id="XMLID_9_" class="cls-8" x2="376.064" transform="translate(-601.571 -6273.307)"/>
    <g id="Group_43" data-name="Group 43" transform="translate(-533.175 -6488.323)">
      <path id="XMLID_15_" class="cls-9" d="M442.78,594.934h-119.3A34.111,34.111,0,0,1,289.4,560.849V426.784A34.111,34.111,0,0,1,323.484,392.7h119.3a34.111,34.111,0,0,1,34.084,34.084V560.849A34.039,34.039,0,0,1,442.78,594.934Z" transform="translate(-289.4 -379.918)"/>
      <path id="XMLID_36_" class="cls-10" d="M442.78,594.934h-119.3A34.111,34.111,0,0,1,289.4,560.849V426.784A34.111,34.111,0,0,1,323.484,392.7h119.3a34.111,34.111,0,0,1,34.084,34.084V560.849A34.039,34.039,0,0,1,442.78,594.934Z" transform="translate(-289.4 -379.918)"/>
      <path id="XMLID_43_" class="cls-11" d="M442.78,710.684h-119.3A34.111,34.111,0,0,1,289.4,676.6v6.874a34.111,34.111,0,0,0,34.084,34.084h119.3a34.111,34.111,0,0,0,34.084-34.084V676.6A34.075,34.075,0,0,1,442.78,710.684Z" transform="translate(-289.4 -502.542)"/>
      <path id="XMLID_40_" class="cls-12" d="M442.78,392.7h-119.3c-18.8,0-34.084,14.031-34.084,31.3v7.328c0-17.269,15.281-31.3,34.084-31.3h119.3c18.8,0,34.084,14.031,34.084,31.3V424C476.864,406.731,461.64,392.7,442.78,392.7Z" transform="translate(-289.4 -379.918)"/>
      <path id="XMLID_34_" class="cls-13" d="M458.3,475.923H427.625A10.255,10.255,0,0,1,417.4,465.7V402.925A10.255,10.255,0,0,1,427.625,392.7h40.9v73A10.219,10.219,0,0,1,458.3,475.923Z" transform="translate(-344.687 -379.918)"/>
      <path id="XMLID_2_" class="cls-14" d="M442.78,594.934h-119.3A34.111,34.111,0,0,1,289.4,560.849V426.784A34.111,34.111,0,0,1,323.484,392.7h119.3a34.111,34.111,0,0,1,34.084,34.084V560.849A34.039,34.039,0,0,1,442.78,594.934Z" transform="translate(-289.4 -379.918)"/>
      <g id="XMLID_5_" class="cls-15" transform="translate(12.498 26.131)">
        <path id="Path_140" data-name="Path 140" class="cls-16" d="M311.4,570.148V437.787A21.577,21.577,0,0,1,332.987,416.2h119.3a21.577,21.577,0,0,1,21.587,21.587v132.3a21.577,21.577,0,0,1-21.587,21.587h-119.3A21.493,21.493,0,0,1,311.4,570.148Z" transform="translate(-311.4 -416.2)"/>
      </g>
      <path id="XMLID_18_" class="cls-10" d="M450.3,459.955H419.625A10.255,10.255,0,0,1,409.4,449.73v-69.3A10.255,10.255,0,0,1,419.625,370.2H450.3a10.255,10.255,0,0,1,10.225,10.225v69.3A10.219,10.219,0,0,1,450.3,459.955Z" transform="translate(-341.231 -370.2)"/>
      <path id="XMLID_45_" class="cls-11" d="M450.3,512.125H419.625A10.255,10.255,0,0,1,409.4,501.9v4.715a10.255,10.255,0,0,0,10.225,10.225H450.3a10.255,10.255,0,0,0,10.225-10.225V501.9A10.219,10.219,0,0,1,450.3,512.125Z" transform="translate(-341.231 -427.085)"/>
      <path id="XMLID_44_" class="cls-12" d="M450.3,370.2H419.625A10.255,10.255,0,0,0,409.4,380.425v3.863a10.255,10.255,0,0,1,10.225-10.225H450.3a10.255,10.255,0,0,1,10.225,10.225v-3.863A10.219,10.219,0,0,0,450.3,370.2Z" transform="translate(-341.231 -370.2)"/>
      <path id="XMLID_4_" class="cls-14" d="M450.3,459.955H419.625A10.255,10.255,0,0,1,409.4,449.73v-69.3A10.255,10.255,0,0,1,419.625,370.2H450.3a10.255,10.255,0,0,1,10.225,10.225v69.3A10.219,10.219,0,0,1,450.3,459.955Z" transform="translate(-341.231 -370.2)"/>
      <circle id="XMLID_35_" class="cls-13" cx="13.179" cy="13.179" r="13.179" transform="translate(82.257 48.741)"/>
      <g id="XMLID_11_" class="cls-15" transform="translate(74.986 6.817)">
        <path id="Path_141" data-name="Path 141" class="cls-17" d="M424.808,458.322a3.419,3.419,0,0,1-3.408-3.409v-69.3a3.418,3.418,0,0,1,3.408-3.408h30.676a3.418,3.418,0,0,1,3.408,3.408v69.3a3.419,3.419,0,0,1-3.408,3.409Z" transform="translate(-421.4 -382.2)"/>
      </g>
      <circle id="XMLID_21_" class="cls-18" cx="13.179" cy="13.179" r="13.179" transform="translate(80.553 45.332)"/>
      <circle id="XMLID_6_" class="cls-4" cx="13.179" cy="13.179" r="13.179" transform="translate(80.553 45.332)"/>
      <g id="XMLID_37_" class="cls-1" transform="translate(85.727 48.59)">
        <path id="Path_142" data-name="Path 142" class="cls-19" d="M453.88,458.9c.454,2.159-2.1,3.522-5.851,4.317-3.806.738-7.215.852-7.669-.966-.454-1.761,2.1-5.113,5.851-6.192C450.017,454.977,453.426,456.794,453.88,458.9Z" transform="translate(-440.308 -455.735)"/>
      </g>
    </g>
    <g id="XMLID_65_" transform="translate(-293.675 -6284.384)">
      <path id="XMLID_41_" class="cls-20" d="M754.912,740.277H715.147A4.17,4.17,0,0,1,711,736.13v-2.784a4.17,4.17,0,0,1,4.147-4.147h39.765a4.17,4.17,0,0,1,4.147,4.147v2.784A4.134,4.134,0,0,1,754.912,740.277Z" transform="translate(-711 -729.2)"/>
      <path id="XMLID_72_" class="cls-21" d="M754.912,731.3H715.147A4.17,4.17,0,0,0,711,735.447v1.591a4.17,4.17,0,0,1,4.147-4.147h39.765a4.17,4.17,0,0,1,4.147,4.147v-1.591A4.17,4.17,0,0,0,754.912,731.3Z" transform="translate(-711 -730.107)"/>
      <path id="XMLID_70_" class="cls-22" d="M754.912,742.137H715.147A4.17,4.17,0,0,1,711,737.99V736.4a4.17,4.17,0,0,0,4.147,4.147h39.765a4.17,4.17,0,0,0,4.147-4.147v1.591A4.134,4.134,0,0,1,754.912,742.137Z" transform="translate(-711 -732.31)"/>
      <path id="XMLID_39_" class="cls-14" d="M754.912,740.277H715.147A4.17,4.17,0,0,1,711,736.13v-2.784a4.17,4.17,0,0,1,4.147-4.147h39.765a4.17,4.17,0,0,1,4.147,4.147v2.784A4.134,4.134,0,0,1,754.912,740.277Z" transform="translate(-711 -729.2)"/>
    </g>
    <g id="XMLID_73_" transform="translate(-287.029 -6295.405)">
      <path id="XMLID_90_" class="cls-20" d="M766.612,720.877H726.847a4.17,4.17,0,0,1-4.147-4.147v-2.784a4.17,4.17,0,0,1,4.147-4.147h39.765a4.17,4.17,0,0,1,4.147,4.147v2.784A4.17,4.17,0,0,1,766.612,720.877Z" transform="translate(-722.7 -709.8)"/>
      <path id="XMLID_89_" class="cls-21" d="M766.612,711.9H726.847a4.17,4.17,0,0,0-4.147,4.147v1.591a4.17,4.17,0,0,1,4.147-4.147h39.765a4.17,4.17,0,0,1,4.147,4.147v-1.591A4.208,4.208,0,0,0,766.612,711.9Z" transform="translate(-722.7 -710.707)"/>
      <path id="XMLID_88_" class="cls-22" d="M766.612,722.737H726.847a4.17,4.17,0,0,1-4.147-4.147V717a4.17,4.17,0,0,0,4.147,4.147h39.765A4.17,4.17,0,0,0,770.759,717v1.591A4.17,4.17,0,0,1,766.612,722.737Z" transform="translate(-722.7 -712.91)"/>
      <path id="XMLID_74_" class="cls-14" d="M766.612,720.877H726.847a4.17,4.17,0,0,1-4.147-4.147v-2.784a4.17,4.17,0,0,1,4.147-4.147h39.765a4.17,4.17,0,0,1,4.147,4.147v2.784A4.17,4.17,0,0,1,766.612,720.877Z" transform="translate(-722.7 -709.8)"/>
    </g>
    <g id="XMLID_47_" transform="translate(-293.675 -6306.426)">
      <path id="XMLID_56_" class="cls-20" d="M754.912,701.477H715.147A4.17,4.17,0,0,1,711,697.331v-2.784a4.17,4.17,0,0,1,4.147-4.147h39.765a4.17,4.17,0,0,1,4.147,4.147v2.784A4.134,4.134,0,0,1,754.912,701.477Z" transform="translate(-711 -690.4)"/>
      <path id="XMLID_53_" class="cls-21" d="M754.912,692.6H715.147A4.17,4.17,0,0,0,711,696.747v1.591a4.17,4.17,0,0,1,4.147-4.147h39.765a4.17,4.17,0,0,1,4.147,4.147v-1.591A4.134,4.134,0,0,0,754.912,692.6Z" transform="translate(-711 -691.35)"/>
      <path id="XMLID_50_" class="cls-22" d="M754.912,703.437H715.147A4.17,4.17,0,0,1,711,699.291V697.7a4.17,4.17,0,0,0,4.147,4.147h39.765a4.17,4.17,0,0,0,4.147-4.147v1.591A4.17,4.17,0,0,1,754.912,703.437Z" transform="translate(-711 -693.553)"/>
      <path id="XMLID_49_" class="cls-14" d="M754.912,701.477H715.147A4.17,4.17,0,0,1,711,697.331v-2.784a4.17,4.17,0,0,1,4.147-4.147h39.765a4.17,4.17,0,0,1,4.147,4.147v2.784A4.134,4.134,0,0,1,754.912,701.477Z" transform="translate(-711 -690.4)"/>
    </g>
    <g id="XMLID_58_" transform="translate(-331.05 -6312.5)">
      <path id="XMLID_67_" class="cls-20" d="M681.5,688.565l-27.154,29.029a4.131,4.131,0,0,1-5.851.17l-1.988-1.875a4.131,4.131,0,0,1-.17-5.851l27.154-29.028a4.131,4.131,0,0,1,5.851-.17l1.988,1.875A4.239,4.239,0,0,1,681.5,688.565Z" transform="translate(-645.208 -679.708)"/>
      <path id="XMLID_66_" class="cls-21" d="M674.91,682.41l-27.154,29.028a4.187,4.187,0,0,0,.17,5.851l1.193,1.079a4.131,4.131,0,0,1-.17-5.851L676.1,683.49a4.131,4.131,0,0,1,5.851-.17l-1.193-1.079A4.131,4.131,0,0,0,674.91,682.41Z" transform="translate(-645.83 -680.313)"/>
      <path id="XMLID_61_" class="cls-22" d="M681.5,688.53l-27.154,29.029a4.131,4.131,0,0,1-5.851.17L647.3,716.65a4.187,4.187,0,0,0,5.851-.17L680.3,687.451a4.186,4.186,0,0,0-.17-5.851l1.193,1.079A4.241,4.241,0,0,1,681.5,688.53Z" transform="translate(-646.112 -680.525)"/>
      <path id="XMLID_60_" class="cls-14" d="M681.5,688.565l-27.154,29.029a4.131,4.131,0,0,1-5.851.17l-1.988-1.875a4.131,4.131,0,0,1-.17-5.851l27.154-29.028a4.131,4.131,0,0,1,5.851-.17l1.988,1.875A4.239,4.239,0,0,1,681.5,688.565Z" transform="translate(-645.208 -679.708)"/>
    </g>
  </g>
</svg>
