<svg xmlns="http://www.w3.org/2000/svg" width="171.63" height="126.748" viewBox="0 0 171.63 126.748">
  <defs>
    <style>
      .cls-1 {
        fill: #e6e6e6;
      }

      .cls-2 {
        fill: #f7f7f7;
      }

      .cls-3 {
        fill: #505075;
      }

      .cls-4 {
        fill: #fff;
      }

      .cls-5 {
        fill: #3f3d56;
      }
    </style>
  </defs>
  <g id="undraw_completed_tasks_vs6q" transform="translate(-0.002 0)">
    <path id="Path_105" data-name="Path 105" class="cls-1" d="M467.183,224.727H402.7a8.257,8.257,0,0,1-8.248-8.248V140.748A8.257,8.257,0,0,1,402.7,132.5h59.992l12.74,10.155v73.825A8.257,8.257,0,0,1,467.183,224.727Z" transform="translate(-357.8 -132.5)"/>
    <path id="Path_106" data-name="Path 106" class="cls-2" d="M409.824,142a5.88,5.88,0,0,0-5.874,5.874v75.731a5.88,5.88,0,0,0,5.874,5.874h64.484a5.88,5.88,0,0,0,5.874-5.874V150.924L468.986,142Z" transform="translate(-364.926 -139.626)"/>
    <path id="Path_107" data-name="Path 107" class="cls-3" d="M543.043,221.86H513.684a1.374,1.374,0,1,1,0-2.747h29.359a1.374,1.374,0,1,1,0,2.747Z" transform="translate(-446.202 -197.465)"/>
    <path id="Path_108" data-name="Path 108" class="cls-3" d="M548.709,240.407H513.684a1.374,1.374,0,1,1,0-2.747h35.025a1.374,1.374,0,1,1,0,2.747Z" transform="translate(-446.202 -211.377)"/>
    <path id="Path_109" data-name="Path 109" class="cls-3" d="M543.043,304.978H513.684a1.374,1.374,0,1,1,0-2.747h29.359a1.374,1.374,0,1,1,0,2.747Z" transform="translate(-446.202 -259.809)"/>
    <path id="Path_110" data-name="Path 110" class="cls-3" d="M548.709,323.525H513.684a1.374,1.374,0,1,1,0-2.747h35.025a1.373,1.373,0,1,1,0,2.747Z" transform="translate(-446.202 -273.72)"/>
    <path id="Path_111" data-name="Path 111" class="cls-3" d="M543.043,388.1H513.684a1.374,1.374,0,1,1,0-2.747h29.359a1.374,1.374,0,1,1,0,2.747Z" transform="translate(-446.202 -322.152)"/>
    <path id="Path_112" data-name="Path 112" class="cls-3" d="M548.709,406.643H513.684a1.374,1.374,0,1,1,0-2.747h35.025a1.374,1.374,0,1,1,0,2.747Z" transform="translate(-446.202 -336.064)"/>
    <circle id="Ellipse_44" data-name="Ellipse 44" class="cls-3" cx="4.855" cy="4.855" r="4.855" transform="translate(50.402 20.485)"/>
    <path id="Path_395" data-name="Path 395" class="cls-4" d="M462.022,230.212a.5.5,0,0,1-.3-.1l-.005,0-1.141-.873a.507.507,0,0,1,.617-.8l.739.567,1.746-2.278a.507.507,0,0,1,.71-.094h0l-.011.015.011-.015a.507.507,0,0,1,.094.711l-2.054,2.678a.507.507,0,0,1-.4.2Z" transform="translate(-407.247 -203.02)"/>
    <path id="Path_113" data-name="Path 113" class="cls-1" d="M679.266,143.557h-9.98a2.747,2.747,0,0,1-2.747-2.747v-7.371a.172.172,0,0,1,.278-.135l12.555,9.946a.172.172,0,0,1-.107.306Z" transform="translate(-561.883 -133.076)"/>
    <path id="Path_114" data-name="Path 114" class="cls-2" d="M297.645,439.835l-38.152,8.042a4.254,4.254,0,0,1-5.034-3.281l-6.547-31.06a4.254,4.254,0,0,1,3.281-5.034l38.152-8.042a4.254,4.254,0,0,1,5.034,3.281l6.547,31.06A4.254,4.254,0,0,1,297.645,439.835Z" transform="translate(-247.819 -333.418)"/>
    <path id="Path_115" data-name="Path 115" class="cls-5" d="M297.645,439.835l-38.152,8.042a4.254,4.254,0,0,1-5.034-3.281l-6.547-31.06a4.254,4.254,0,0,1,3.281-5.034l38.152-8.042a4.254,4.254,0,0,1,5.034,3.281l6.547,31.06A4.254,4.254,0,0,1,297.645,439.835ZM251.3,408.991a3.753,3.753,0,0,0-2.9,4.442l6.547,31.06a3.753,3.753,0,0,0,4.442,2.9l38.152-8.042a3.753,3.753,0,0,0,2.9-4.442l-6.547-31.06a3.753,3.753,0,0,0-4.442-2.9Z" transform="translate(-247.819 -333.418)"/>
    <path id="Path_411" data-name="Path 411" class="cls-3" d="M344.2,437.652l-19.255,4.059a.683.683,0,0,1-.807-.466.658.658,0,0,1,.5-.813l19.6-4.131c.765.431.523,1.233-.038,1.352Z" transform="translate(-305.047 -360.369)"/>
    <path id="Path_412" data-name="Path 412" class="cls-3" d="M347.051,451.165,327.8,455.224a.683.683,0,0,1-.807-.466.658.658,0,0,1,.5-.813l19.6-4.131c.765.431.523,1.234-.038,1.352Z" transform="translate(-307.183 -370.505)"/>
    <path id="Path_413" data-name="Path 413" class="cls-3" d="M290.556,457.463l-5.876,1.239a.74.74,0,0,1-.876-.571l-1.462-6.935a.74.74,0,0,1,.571-.876l5.876-1.239a.741.741,0,0,1,.876.571l1.462,6.935a.74.74,0,0,1-.571.876Z" transform="translate(-273.699 -369.943)"/>
    <path id="Path_414" data-name="Path 414" class="cls-3" d="M322.255,478.88l-29.386,6.194a.682.682,0,0,1-.807-.466.657.657,0,0,1,.5-.813l29.732-6.267c.765.431.523,1.233-.038,1.352Z" transform="translate(-280.985 -391.293)"/>
    <path id="Path_415" data-name="Path 415" class="cls-3" d="M325.1,492.4l-29.386,6.194a.683.683,0,0,1-.807-.466.658.658,0,0,1,.5-.813l29.732-6.267c.765.431.523,1.233-.038,1.352Z" transform="translate(-283.122 -401.431)"/>
    <path id="Path_416" data-name="Path 416" class="cls-3" d="M327.951,505.905,298.565,512.1a.683.683,0,0,1-.807-.466.658.658,0,0,1,.5-.813l29.732-6.267c.765.431.523,1.233-.038,1.352Z" transform="translate(-285.258 -411.563)"/>
    <path id="Path_417" data-name="Path 417" class="cls-3" d="M330.8,519.421l-29.387,6.194a.682.682,0,0,1-.807-.466.658.658,0,0,1,.5-.813l29.732-6.267c.765.431.523,1.233-.038,1.352Z" transform="translate(-287.395 -421.701)"/>
    <path id="Path_418" data-name="Path 418" class="cls-3" d="M333.647,532.931l-29.387,6.194a.683.683,0,0,1-.807-.466.657.657,0,0,1,.5-.813l29.732-6.267c.765.431.523,1.234-.038,1.352Z" transform="translate(-289.53 -431.834)"/>
    <path id="Path_128" data-name="Path 128" class="cls-2" d="M758.192,454.18l-34.006,19.075a4.254,4.254,0,0,1-5.784-1.627l-15.529-27.684a4.254,4.254,0,0,1,1.627-5.785l34.006-19.075a4.254,4.254,0,0,1,5.784,1.627L759.819,448.4A4.254,4.254,0,0,1,758.192,454.18Z" transform="translate(-588.729 -347.049)"/>
    <path id="Path_129" data-name="Path 129" class="cls-5" d="M758.192,454.18l-34.006,19.075a4.254,4.254,0,0,1-5.784-1.627l-15.529-27.684a4.254,4.254,0,0,1,1.627-5.785l34.006-19.075a4.254,4.254,0,0,1,5.784,1.627L759.819,448.4A4.254,4.254,0,0,1,758.192,454.18Zm-53.448-15.585a3.754,3.754,0,0,0-1.436,5.1l15.529,27.684a3.753,3.753,0,0,0,5.1,1.436l34.006-19.075a3.753,3.753,0,0,0,1.436-5.1l-15.529-27.684a3.753,3.753,0,0,0-5.1-1.436Z" transform="translate(-588.729 -347.049)"/>
    <path id="Path_411-2" data-name="Path 411" class="cls-3" d="M795.721,458.743l-17.162,9.627a.682.682,0,0,1-.909-.2.657.657,0,0,1,.234-.925l17.47-9.8c.859.183.868,1.021.368,1.3Z" transform="translate(-645.146 -376.226)"/>
    <path id="Path_412-2" data-name="Path 412" class="cls-3" d="M802.477,470.787l-17.162,9.627a.683.683,0,0,1-.909-.2.658.658,0,0,1,.234-.925l17.47-9.8c.859.183.868,1.021.368,1.3Z" transform="translate(-650.213 -385.26)"/>
    <path id="Path_413-2" data-name="Path 413" class="cls-3" d="M747.924,505.69l-5.238,2.938a.74.74,0,0,1-1.007-.283l-3.467-6.181a.74.74,0,0,1,.283-1.007l5.238-2.938a.74.74,0,0,1,1.007.283l3.467,6.181a.74.74,0,0,1-.283,1.007Z" transform="translate(-615.572 -406.741)"/>
    <path id="Path_414-2" data-name="Path 414" class="cls-3" d="M789.009,495.56l-26.193,14.692a.683.683,0,0,1-.909-.2.657.657,0,0,1,.234-.925l26.5-14.865C789.5,494.442,789.51,495.28,789.009,495.56Z" transform="translate(-633.338 -403.841)"/>
    <path id="Path_415-2" data-name="Path 415" class="cls-3" d="M795.767,507.608,769.574,522.3a.683.683,0,0,1-.909-.2.657.657,0,0,1,.234-.925l26.5-14.865c.859.183.868,1.021.368,1.3Z" transform="translate(-638.407 -412.878)"/>
    <path id="Path_416-2" data-name="Path 416" class="cls-3" d="M802.521,519.648l-26.193,14.692a.682.682,0,0,1-.909-.2.658.658,0,0,1,.234-.925l26.5-14.865C803.013,518.53,803.022,519.368,802.521,519.648Z" transform="translate(-643.473 -421.909)"/>
    <path id="Path_417-2" data-name="Path 417" class="cls-3" d="M809.278,531.7l-26.193,14.692a.682.682,0,0,1-.909-.2.658.658,0,0,1,.234-.925l26.5-14.865c.859.183.868,1.021.368,1.3Z" transform="translate(-648.541 -430.945)"/>
    <path id="Path_418-2" data-name="Path 418" class="cls-3" d="M816.032,543.737,789.839,558.43a.683.683,0,0,1-.909-.2.657.657,0,0,1,.234-.925l26.5-14.865c.859.183.868,1.021.368,1.3Z" transform="translate(-653.607 -439.977)"/>
    <circle id="Ellipse_44-2" data-name="Ellipse 44" class="cls-3" cx="4.855" cy="4.855" r="4.855" transform="translate(50.402 41.485)"/>
    <circle id="Ellipse_44-3" data-name="Ellipse 44" class="cls-3" cx="4.855" cy="4.855" r="4.855" transform="translate(50.402 62.485)"/>
    <path id="Path_395-2" data-name="Path 395" class="cls-4" d="M462.022,230.212a.5.5,0,0,1-.3-.1l-.005,0-1.141-.873a.507.507,0,0,1,.617-.8l.739.567,1.746-2.278a.507.507,0,0,1,.71-.094h0l-.011.015.011-.015a.507.507,0,0,1,.094.711l-2.054,2.678a.507.507,0,0,1-.4.2Z" transform="translate(-407.247 -182.021)"/>
    <path id="Path_395-3" data-name="Path 395" class="cls-4" d="M462.022,230.212a.5.5,0,0,1-.3-.1l-.005,0-1.141-.873a.507.507,0,0,1,.617-.8l.739.567,1.746-2.278a.507.507,0,0,1,.71-.094h0l-.011.015.011-.015a.507.507,0,0,1,.094.711l-2.054,2.678a.507.507,0,0,1-.4.2Z" transform="translate(-407.247 -161.021)"/>
  </g>
</svg>
